<svg width="177" height="84" viewBox="0 0 177 84" fill="none" xmlns="http://www.w3.org/2000/svg">
<path d="M63.5 19.5L147.305 14.8874L149.881 35.7288L63.4999 51L63.5 19.5Z" fill="#212121"/>
<path d="M0.5 81.5C48.9 81.5 58.3333 59.5 57 48.5C57 42.3334 55.8 32.1 51 40.5C34.6 75.7 10.5 75.8334 0.5 71.5V81.5Z" fill="#212121" stroke="#212121"/>
<circle cx="77.5" cy="48.5" r="34.5" fill="#212121" stroke="#D9D9D9" stroke-width="2"/>
<path d="M138.254 10.0306L137.421 10.2422L137.505 11.0977L140.505 41.5979L140.594 42.5L141.5 42.5L174.5 42.5L175.624 42.5L175.493 41.3839L170.993 2.88355L170.861 1.74931L169.754 2.03041L138.254 10.0306Z" fill="#212121" stroke="#D9D9D9" stroke-width="2"/>
</svg>
