<svg width="109" height="109" viewBox="0 0 109 109" fill="none" xmlns="http://www.w3.org/2000/svg">
<circle cx="54.5" cy="54.5" r="53" fill="#F1C27B" stroke="black" stroke-width="3"/>
<mask id="path-2-inside-1_46_2" fill="white">
<path d="M109 54.5C109 43.7209 105.804 33.1839 99.8151 24.2214C93.8266 15.2589 85.3148 8.27354 75.3562 4.14857C65.3977 0.0235894 54.4395 -1.05569 43.8676 1.0472C33.2956 3.1501 23.5846 8.34072 15.9627 15.9627C8.34072 23.5846 3.1501 33.2956 1.0472 43.8676C-1.05569 54.4395 0.0235896 65.3977 4.14857 75.3562C8.27354 85.3148 15.2589 93.8266 24.2214 99.8151C33.1839 105.804 43.7209 109 54.5 109V54.5H109Z"/>
</mask>
<path d="M109 54.5C109 43.7209 105.804 33.1839 99.8151 24.2214C93.8266 15.2589 85.3148 8.27354 75.3562 4.14857C65.3977 0.0235894 54.4395 -1.05569 43.8676 1.0472C33.2956 3.1501 23.5846 8.34072 15.9627 15.9627C8.34072 23.5846 3.1501 33.2956 1.0472 43.8676C-1.05569 54.4395 0.0235896 65.3977 4.14857 75.3562C8.27354 85.3148 15.2589 93.8266 24.2214 99.8151C33.1839 105.804 43.7209 109 54.5 109V54.5H109Z" fill="white" stroke="black" stroke-width="6" mask="url(#path-2-inside-1_46_2)"/>
</svg>
